<svg width="199.999" height="78.283" viewBox="0 0 52.916 20.712" xml:space="preserve" xmlns:xlink="http://www.w3.org/1999/xlink" xmlns="http://www.w3.org/2000/svg"><defs><radialGradient xlink:href="#a" id="b" cx="53.891" cy="150.424" fx="53.891" fy="150.424" r="41.583" gradientTransform="matrix(.26028 0 0 .13767 18.494 97.515)" gradientUnits="userSpaceOnUse"/><linearGradient id="a"><stop style="stop-color:#ff6;stop-opacity:1" offset="0"/><stop style="stop-color:#deb054;stop-opacity:1" offset="1"/></linearGradient></defs><path d="M45.824 109.406c-14.46 0-26.183 3.724-26.183 8.316 0 4.593 11.723 8.316 26.183 8.316 14.46 0 26.183-3.723 26.183-8.316 0-4.592-11.723-8.316-26.183-8.316z" style="fill:#1b1918;fill-rule:evenodd;stroke:#1b1918;stroke-width:.550939;stroke-linecap:butt;stroke-linejoin:miter;stroke-dasharray:none" transform="translate(-19.366 -109.13)"/><path d="m56.553 111.85-8.997 12.392a88.039 88.039 0 0 0 3.874-.157l4.348-5.988 5.717 4.636a34.128 34.128 0 0 0 3.599-1l-5.112-4.068 6.065-3.602a27.953 27.953 0 0 0-3.211-1.027l-6.026 3.638 3.114-4.287a59.912 59.912 0 0 0-3.371-.537zM39.51 111.407l2.841 4.042 3.37 4.795 3.37-4.795 2.85-4.056c1.177.081 2.32.186 3.42.311l-8.82 12.552a99.85 99.85 0 0 1-1.642-.002l-8.803-12.528a76.96 76.96 0 0 1 3.415-.319z" style="fill:#fff;fill-rule:evenodd;stroke-width:.0918218" transform="translate(-19.366 -109.13)"/><path d="M43.884 124.238c-12.57-.265-22.463-3.08-22.463-6.516 0-2.325 4.536-4.367 11.366-5.526l1.816 2.584c-6.288.9-8.53 2.028-8.345 3.096l7.485-1.207 1.337 1.993-6.182 1.022c3.134 1.104 8.49 1.848 12.978 1.682.005 0 1.801 2.576 2.008 2.872z" style="fill:#d78328;fill-opacity:1;fill-rule:evenodd;stroke-width:.0918218" transform="translate(-19.366 -109.13)"/><path d="M27.83 127.722a.69.69 0 0 1-.506-.455c-.085-.238-.087-.51-.008-.813.078-.297.214-.53.408-.698a.691.691 0 0 1 .664-.154.94.94 0 0 1 .236.092.574.574 0 0 1 .16.136l-.144.206a.515.515 0 0 0-.248-.142.39.39 0 0 0-.419.13c-.115.13-.202.307-.26.53a1.211 1.211 0 0 0-.029.584c.04.168.14.272.3.314a.546.546 0 0 0 .147.021.445.445 0 0 0 .132-.025l.025.27c-.12.051-.273.053-.459.005zm1.519.366c-.266-.06-.441-.202-.525-.427-.084-.225-.09-.498-.018-.818.07-.317.192-.56.365-.73.172-.17.391-.225.657-.165.264.06.438.202.522.43.083.227.09.498.018.815-.071.32-.193.564-.364.732-.17.168-.39.223-.655.163zm.422-1.883c-.147-.033-.266.02-.357.156a1.679 1.679 0 0 0-.216.558c-.052.234-.067.43-.044.593.023.16.11.258.258.292.15.033.268-.018.357-.155a1.71 1.71 0 0 0 .212-.554c.053-.235.067-.434.045-.597-.023-.162-.108-.26-.255-.293zm2.445 2.463.148-1.408a2.54 2.54 0 0 1 .041-.254c-.014.029-.03.06-.046.096a329.551 329.551 0 0 0-.618 1.196c-.07.134-.114.217-.132.247l-.219-.045a692.94 692.94 0 0 0-.11-1.418 3.69 3.69 0 0 1-.013-.308l-.026.101a1.912 1.912 0 0 1-.04.145l-.416 1.357-.324-.066.659-2.04.388.078.101 1.415c.002.042.004.09.004.143l.003.102a3.595 3.595 0 0 1 .108-.221l.658-1.26.389.078-.191 2.136zm1.382-.644-.083-.012-.126.827-.38-.058.308-2.018c.073-.025.162-.04.268-.047.105-.007.216-.001.332.016.26.04.443.129.552.266a.63.63 0 0 1 .117.507.59.59 0 0 1-.29.446c-.164.095-.396.12-.698.074zm.279-1.07a.746.746 0 0 0-.114-.01.439.439 0 0 0-.087.014l-.125.818.079.018c.185.028.323.014.413-.042.09-.056.147-.159.17-.308.022-.145.007-.257-.044-.337-.052-.08-.15-.13-.292-.153zm1.58 2.225c-.27-.035-.457-.16-.561-.377-.105-.216-.135-.487-.093-.813.041-.322.14-.575.296-.76.157-.184.37-.26.64-.224.268.034.455.161.558.38.104.218.135.488.094.81-.042.325-.14.58-.296.763-.155.183-.367.257-.638.221zm.248-1.913c-.15-.02-.263.043-.341.188a1.679 1.679 0 0 0-.164.576 1.68 1.68 0 0 0 .01.593c.039.159.133.248.285.268.151.02.265-.043.341-.187a1.71 1.71 0 0 0 .16-.571c.03-.24.028-.439-.01-.599-.038-.16-.131-.249-.28-.268zm2.208 2.159-.664-1.45a2.167 2.167 0 0 1-.099-.25 2.613 2.613 0 0 1-.019.246l-.14 1.36-.329-.035.217-2.12.37.038.625 1.366c.026.055.046.103.06.143.016.041.026.07.033.084l.009-.086.01-.092.004-.046.131-1.28.324.034-.218 2.12zm.817.083.17-2.124 1.035.083-.021.263-.643-.052-.051.642.571.046-.021.263-.571-.046-.056.694.642.052-.02.262zm2.707.187-.733-1.417a2.162 2.162 0 0 1-.11-.245 2.588 2.588 0 0 1-.008.248l-.074 1.363-.33-.018.115-2.127.37.02.69 1.334c.03.053.051.1.068.14l.036.082a19.6 19.6 0 0 1 .005-.086l.005-.093.002-.046.07-1.284.325.018-.116 2.128zm1.55-1.82-.073 1.867-.393-.015.072-1.867-.396-.015.01-.263 1.189.046-.01.263zm.694 1.9.05-2.13 1.037.023-.006.263-.644-.015-.015.645.573.013-.006.263-.573-.013-.016.697.644.015-.006.263zm1.872.068a1.334 1.334 0 0 1-.308-.035.704.704 0 0 1-.216-.095l.1-.274a.676.676 0 0 0 .354.106.341.341 0 0 0 .25-.086.316.316 0 0 0 .098-.237.287.287 0 0 0-.073-.204.856.856 0 0 0-.283-.175.665.665 0 0 1-.305-.244.587.587 0 0 1-.093-.332.615.615 0 0 1 .183-.441.614.614 0 0 1 .466-.173c.103.002.193.014.27.037a.666.666 0 0 1 .195.09l-.09.242a.68.68 0 0 0-.148-.073.55.55 0 0 0-.18-.032.298.298 0 0 0-.227.08.314.314 0 0 0-.085.225.275.275 0 0 0 .079.208c.054.053.154.112.3.177a.67.67 0 0 1 .315.253.626.626 0 0 1 .091.344.618.618 0 0 1-.2.465.68.68 0 0 1-.493.174zm3.01-.072-.023-.96-.672.016.022.96-.393.009-.049-2.131.394-.009.02.907.672-.015-.02-.907.393-.01.049 2.131zm.893-.041-.082-2.13.396-.015.082 2.13zm1.5-.044c-.26.016-.464-.01-.61-.082l-.125-1.948c.07-.041.153-.076.25-.104.098-.028.206-.046.323-.054.311-.02.549.062.713.245.164.183.256.441.278.775.022.338-.034.612-.167.822-.134.21-.354.326-.661.346zm-.136-1.932a.56.56 0 0 0-.199.044l.103 1.598a.602.602 0 0 0 .21.018c.178-.011.303-.087.374-.227.07-.14.097-.357.078-.65-.018-.28-.072-.483-.162-.61-.09-.126-.225-.184-.404-.172zm2.463 1.724-.685-.911.077.964-.386.033-.175-2.034c.07-.043.154-.08.248-.11.095-.03.202-.05.322-.06.259-.022.46.018.6.12.142.101.222.254.24.458a.548.548 0 0 1-.125.416.555.555 0 0 1-.395.194l.714.893zm-.58-1.892a.472.472 0 0 0-.191.053l.072.833a.233.233 0 0 0 .072.008c.027 0 .051-.003.074-.005.15-.012.26-.06.328-.143.069-.082.097-.197.084-.343-.013-.15-.054-.258-.123-.323-.069-.066-.174-.093-.316-.08zm1.865-.546-.206.023.164-.455a.311.311 0 0 1 .096-.054.487.487 0 0 1 .116-.029c.082-.009.134.007.158.048zm.676 2.23-.225-.526-.682.077-.107.564-.353.04.463-2.197.37-.042.937 2.04zm-.609-1.468a1.61 1.61 0 0 1-.05-.14 1.788 1.788 0 0 0-.033-.103 2.073 2.073 0 0 1-.007.087c-.004.032-.013.09-.028.17l-.144.77.565-.063zm2.034 1.32a.716.716 0 0 1-.53-.111.617.617 0 0 1-.255-.442l-.202-1.498.39-.053.202 1.495c.015.11.057.192.127.245.07.053.15.074.242.061a.309.309 0 0 0 .218-.123c.051-.07.07-.16.054-.27l-.201-1.495.362-.049.202 1.498a.616.616 0 0 1-.13.493.713.713 0 0 1-.48.25zm1.173-.195-.347-2.102.391-.065.304 1.843.58-.096.044.26zm1.36-.22-.385-2.096.39-.072.385 2.096zm1.606-.277a.69.69 0 0 1-.655-.187c-.18-.176-.303-.417-.365-.725-.062-.301-.042-.57.057-.807.1-.236.276-.38.529-.431a.943.943 0 0 1 .251-.021c.073.005.14.022.204.052l-.038.248a.578.578 0 0 0-.285-.019.39.39 0 0 0-.318.302 1.275 1.275 0 0 0 0 .591c.046.225.123.404.232.536.11.133.245.183.407.15a.55.55 0 0 0 .142-.046.456.456 0 0 0 .107-.08l.142.23c-.085.1-.222.168-.41.206zm1.505-.335c-.266.062-.485.01-.659-.156-.173-.166-.298-.409-.373-.728-.073-.316-.07-.588.011-.816.082-.228.255-.373.52-.435.264-.062.483-.009.657.16.174.168.298.41.372.725.075.32.072.593-.01.818-.08.226-.253.37-.518.432zm-.44-1.879c-.147.035-.232.134-.254.296a1.68 1.68 0 0 0 .05.597c.054.233.126.417.218.552.09.135.21.186.36.15.148-.034.233-.132.253-.294a1.71 1.71 0 0 0-.05-.591 1.706 1.706 0 0 0-.22-.557c-.092-.136-.21-.187-.358-.153zm2.057 1.457a1.35 1.35 0 0 1-.304.056.714.714 0 0 1-.236-.029l.018-.291a.666.666 0 0 0 .37-.002c.099-.028.17-.08.213-.154a.317.317 0 0 0 .024-.255.288.288 0 0 0-.128-.174.856.856 0 0 0-.322-.086.665.665 0 0 1-.363-.145.587.587 0 0 1-.186-.29.616.616 0 0 1 .047-.475.614.614 0 0 1 .396-.301c.1-.028.19-.043.27-.044.08 0 .15.01.212.03l-.017.258a.68.68 0 0 0-.162-.027.56.56 0 0 0-.18.022.299.299 0 0 0-.195.142.313.313 0 0 0-.016.24c.023.081.069.14.136.176.067.036.18.063.339.083a.67.67 0 0 1 .374.15c.09.08.153.182.188.303a.618.618 0 0 1-.057.503.68.68 0 0 1-.42.31z" style="fill:#1b1918;fill-rule:evenodd;stroke-width:.0918218" transform="translate(-19.366 -109.13)"/><path style="fill:url(#b);fill-opacity:1;fill-rule:evenodd;stroke-width:.0918218" d="M32.205 112.578c-2.162.404-4.323.899-6.37 1.694-1.093.433-2.206.932-3.118 1.703-.516.437-1.006 1.018-1.019 1.73-.006.677.447 1.258.929 1.69.744.65 1.634 1.106 2.542 1.51 1.993.847 4.104 1.378 6.222 1.807 3.303.648 6.655.992 10.014 1.162a88.42 88.42 0 0 0 1.94.074l-1.61-2.303a43.412 43.412 0 0 1-10.182-.941 25.163 25.163 0 0 1-3.727-1.114c2.26-.386 4.524-.756 6.787-1.129l-1.001-1.492-7.586 1.223c-.143-.462-.003-.998.374-1.308.677-.627 1.58-.915 2.437-1.2 1.723-.532 3.504-.838 5.284-1.11l-1.459-2.076-.457.08z" transform="translate(-19.366 -109.13)"/></svg>