<svg width="241.89" height="241.89" viewBox="0 0 64 64" xml:space="preserve" xmlns:xlink="http://www.w3.org/1999/xlink" xmlns="http://www.w3.org/2000/svg"><defs><radialGradient xlink:href="#a" id="b" cx="53.891" cy="150.424" fx="53.891" fy="150.424" r="41.583" gradientTransform="matrix(1.09367 0 0 .66552 -1.053 6.811)" gradientUnits="userSpaceOnUse"/><linearGradient id="a"><stop style="stop-color:#ff6;stop-opacity:1" offset="0"/><stop style="stop-color:#deb054;stop-opacity:1" offset="1"/></linearGradient></defs><path d="M105 80.746c-17.35 0-31.414 14.064-31.414 31.413 0 17.35 14.065 31.414 31.414 31.414 17.35 0 31.414-14.065 31.414-31.414 0-17.35-14.065-31.413-31.414-31.413z" style="fill:#1b1918;fill-rule:evenodd;stroke:#1b1918;stroke-width:1.17289;stroke-linecap:butt;stroke-linejoin:miter;stroke-dasharray:none" transform="translate(-73 -80.16)"/><path d="m158.863 76.113-37.806 59.906c5.56-.12 10.999-.376 16.28-.758l18.269-28.95 24.023 22.41c5.576-1.44 10.647-3.06 15.12-4.832l-21.476-19.665 25.484-17.414c-3.943-1.795-8.471-3.457-13.496-4.963l-25.316 17.588 13.08-20.728a221.512 221.512 0 0 0-14.162-2.594zM87.255 73.971 99.19 93.512l14.158 23.18 14.157-23.18 11.978-19.61c4.946.394 9.746.898 14.373 1.504l-37.062 60.679c-2.3.02-4.599.016-6.899-.01l-36.99-60.56c4.617-.62 9.41-1.137 14.35-1.544z" style="fill:#fff;fill-rule:evenodd;stroke-width:.413838" transform="matrix(.3148 0 0 .3148 -1.054 -1.054)"/><path d="M105.631 136c-52.82-1.28-94.388-14.893-94.388-31.5 0-11.243 19.059-21.113 47.759-26.713l7.629 12.49c-26.421 4.35-35.84 9.802-35.064 14.965l31.452-5.832 5.618 9.634-25.976 4.938c13.167 5.338 35.671 8.936 54.533 8.134.02 0 7.567 12.451 8.437 13.884z" style="fill:#d78328;fill-opacity:1;fill-rule:evenodd;stroke-width:.413838" transform="matrix(.3148 0 0 .3148 -1.054 -1.054)"/><path style="fill:url(#b);fill-opacity:1;fill-rule:evenodd;stroke-width:.413838" d="M56.554 79.632c-9.08 1.951-18.16 4.345-26.762 8.186-4.595 2.096-9.27 4.506-13.103 8.235-2.167 2.115-4.227 4.922-4.281 8.36-.025 3.276 1.876 6.087 3.903 8.174 3.126 3.14 6.867 5.348 10.68 7.303 8.376 4.091 17.247 6.66 26.146 8.731 13.878 3.134 27.962 4.796 42.075 5.618 2.716.153 5.434.273 8.152.357l-6.763-11.13c-14.35.448-28.745-1.124-42.783-4.553a95.62 95.62 0 0 1-15.661-5.386c9.498-1.864 19.008-3.651 28.516-5.456l-4.206-7.21c-10.624 1.97-21.248 3.937-31.872 5.91-.603-2.235-.015-4.825 1.571-6.326 2.843-3.03 6.634-4.423 10.237-5.802 7.24-2.566 14.726-4.045 22.202-5.362l-6.128-10.035-1.923.386z" transform="matrix(.3148 0 0 .3148 -1.054 -1.054)"/></svg>