<?xml version="1.0" standalone="no"?>
<!DOCTYPE svg PUBLIC "-//W3C//DTD SVG 20010904//EN"
 "http://www.w3.org/TR/2001/REC-SVG-20010904/DTD/svg10.dtd">
<svg version="1.0" xmlns="http://www.w3.org/2000/svg"
 width="242.000000pt" height="242.000000pt" viewBox="0 0 242.000000 242.000000"
 preserveAspectRatio="xMidYMid meet">
<metadata>
Created by potrace 1.14, written by Peter Selinger 2001-2017
</metadata>
<g transform="translate(0.000000,242.000000) scale(0.100000,-0.100000)"
fill="#000000" stroke="none">
<path d="M1089 2416 c-2 -2 -24 -6 -49 -9 -170 -21 -349 -90 -505 -196 -276
-186 -461 -473 -518 -801 -14 -83 -16 -332 -3 -390 4 -14 9 -38 11 -55 17 -97
78 -257 135 -355 149 -255 381 -448 648 -539 79 -27 114 -37 207 -56 56 -12
270 -14 350 -4 350 44 662 241 862 545 89 134 160 323 180 475 15 112 7 367
-12 421 -2 7 -6 24 -9 38 -8 51 -58 187 -97 264 -167 333 -465 559 -844 643
-62 13 -345 29 -356 19z"/>
</g>
</svg>
